<svg xmlns="http://www.w3.org/2000/svg" xmlns:xlink="http://www.w3.org/1999/xlink" version="1.1" x="0px" y="0px" viewBox="0 0 512 640" enable-background="new 0 0 512 512" xml:space="preserve"><g><path d="M507.3,218.7l-83.1-72.5v-113c0-4.4-3.6-7.9-7.9-7.9H352c-4.4,0-7.9,3.6-7.9,7.9v43L261.2,4c-3-2.6-7.4-2.6-10.4,0   L4.7,218.7c-2.5,2.2-3.4,5.7-2.2,8.8c1.2,3.1,4.1,5.2,7.4,5.2h62.7v245.7c0,17.5,14.2,31.7,31.7,31.7h303.2   c17.5,0,31.7-14.2,31.7-31.7V232.6h62.7c3.3,0,6.3-2.1,7.4-5.2C510.7,224.3,509.8,220.8,507.3,218.7z M359.9,41.1h48.4v91.2   l-5.9-5.2l-42.5-37.1V41.1z M431.5,216.7c-4.4,0-7.9,3.6-7.9,7.9v253.6c0,8.8-7.1,15.9-15.9,15.9H104.4c-8.8,0-15.9-7.1-15.9-15.9   V224.6c0-4.4-3.6-7.9-7.9-7.9H31.1L256,20.5l224.9,196.2H431.5z"/><path d="M325.2,132.8c3.2,2.9,8.2,2.7,11.2-0.5c3-3.2,2.7-8.3-0.5-11.2l-74.6-68c-3-2.8-7.7-2.8-10.7,0L101.5,189.1   c-3.2,3-3.5,8-0.5,11.2c1.6,1.7,3.7,2.6,5.9,2.6c1.9,0,3.8-0.7,5.3-2.1L256,69.6L325.2,132.8z"/><path d="M378.6,160c-3.2-2.9-8.3-2.7-11.2,0.5c-3,3.2-2.7,8.3,0.5,11.2l31.9,29.1c1.5,1.4,3.4,2.1,5.3,2.1c2.2,0,4.3-0.9,5.9-2.6   c3-3.2,2.7-8.3-0.5-11.2L378.6,160z"/><path d="M308.1,208.6c-1.2,4.2,1.3,8.6,5.5,9.8l48.8,13.8c0.7,0.2,1.4,0.3,2.2,0.3c3.5,0,6.6-2.3,7.6-5.8c1.2-4.2-1.3-8.6-5.5-9.8   l-48.8-13.8C313.7,201.9,309.3,204.4,308.1,208.6z"/><path d="M147.4,232.5c0.7,0,1.4-0.1,2.2-0.3l48.8-13.8c4.2-1.2,6.7-5.6,5.5-9.8c-1.2-4.2-5.6-6.7-9.8-5.5l-48.8,13.8   c-4.2,1.2-6.7,5.6-5.5,9.8C140.7,230.2,143.9,232.5,147.4,232.5z"/><path d="M336.6,248.1c-19.8,0-35.9,16.1-35.9,35.9c0,19.8,16.1,35.9,35.9,35.9c19.8,0,35.9-16.1,35.9-35.9   C372.5,264.2,356.4,248.1,336.6,248.1z M336.6,304c-11.1,0-20-9-20-20s9-20,20-20c11.1,0,20,9,20,20S347.7,304,336.6,304z"/><path d="M175.4,319.9c19.8,0,35.9-16.1,35.9-35.9c0-19.8-16.1-35.9-35.9-35.9c-19.8,0-35.9,16.1-35.9,35.9   C139.4,303.8,155.6,319.9,175.4,319.9z M175.4,263.9c11.1,0,20.1,9,20.1,20s-9,20-20.1,20s-20-9-20-20S164.3,263.9,175.4,263.9z"/><path d="M363.5,348.5c-3.9-0.2-7,2.3-7.9,5.9c-7.2,26.7-49.9,46.9-99.5,46.9s-92.4-20.1-99.6-46.9c-1-3.6-3.9-6.1-7.9-5.9   c-3.7,0.1-6.8,2.8-7.5,6.4c-1,5.3-1.5,10-1.5,14.4c0,51,52.3,92.6,116.6,92.6c64.3,0,116.5-41.5,116.5-92.6c0-4.5-0.5-9.2-1.6-14.5   C370.3,351.2,367.2,348.6,363.5,348.5z M256,446c-48.7,0-89.5-26.5-98.7-61.6c20.7,19.9,57.3,32.6,98.7,32.6s78-12.8,98.7-32.6   C345.5,419.5,304.7,446,256,446z"/></g></svg>